<?xml version="1.0" encoding="UTF-8" standalone="no"?><!-- Generator: Gravit.io --><svg xmlns="http://www.w3.org/2000/svg" xmlns:xlink="http://www.w3.org/1999/xlink" style="isolation:isolate" viewBox="431.536 208.822 258.293 78.332" width="258.293pt" height="78.332pt"><defs><clipPath id="_clipPath_llwAaUUvBQS5PC64je9mTfoq31F5ra0T"><rect x="431.536" y="208.822" width="258.293" height="78.332"/></clipPath></defs><g clip-path="url(#_clipPath_llwAaUUvBQS5PC64je9mTfoq31F5ra0T)"><path d=" M 479.854 232.636 L 498.711 232.636 L 498.711 236.796 L 485.009 236.796 L 485.009 246.699 L 496.314 246.699 L 496.314 250.679 L 485.009 250.679 L 485.009 264.562 L 479.854 264.562 L 479.854 232.636 Z  M 513.317 239.328 L 513.317 239.328 Q 516.709 239.328 519.106 241.002 L 519.106 241.002 L 519.106 241.002 Q 521.502 242.675 522.497 245.433 L 522.497 245.433 L 522.497 239.645 L 527.652 239.645 L 527.652 264.562 L 522.497 264.562 L 522.497 258.773 L 522.497 258.773 Q 521.502 261.532 519.106 263.205 L 519.106 263.205 L 519.106 263.205 Q 516.709 264.878 513.317 264.878 L 513.317 264.878 L 513.317 264.878 Q 510.061 264.878 507.507 263.341 L 507.507 263.341 L 507.507 263.341 Q 504.952 261.803 503.504 258.909 L 503.504 258.909 L 503.504 258.909 Q 502.057 256.015 502.057 252.081 L 502.057 252.081 L 502.057 252.081 Q 502.057 248.192 503.504 245.298 L 503.504 245.298 L 503.504 245.298 Q 504.952 242.403 507.507 240.866 L 507.507 240.866 L 507.507 240.866 Q 510.061 239.328 513.317 239.328 L 513.317 239.328 Z  M 514.9 243.851 L 514.9 243.851 Q 511.463 243.851 509.406 246.044 L 509.406 246.044 L 509.406 246.044 Q 507.348 248.237 507.348 252.081 L 507.348 252.081 L 507.348 252.081 Q 507.348 255.924 509.406 258.118 L 509.406 258.118 L 509.406 258.118 Q 511.463 260.311 514.9 260.311 L 514.9 260.311 L 514.9 260.311 Q 517.071 260.311 518.789 259.293 L 518.789 259.293 L 518.789 259.293 Q 520.507 258.276 521.502 256.422 L 521.502 256.422 L 521.502 256.422 Q 522.497 254.568 522.497 252.081 L 522.497 252.081 L 522.497 252.081 Q 522.497 249.639 521.502 247.762 L 521.502 247.762 L 521.502 247.762 Q 520.507 245.885 518.789 244.868 L 518.789 244.868 L 518.789 244.868 Q 517.071 243.851 514.9 243.851 L 514.9 243.851 Z  M 554.333 264.562 L 547.956 264.562 L 539.003 253.483 L 539.003 264.562 L 533.848 264.562 L 533.848 231.098 L 539.003 231.098 L 539.003 250.272 L 547.866 239.645 L 554.061 239.645 L 543.208 252.035 L 554.333 264.562 Z  M 580.832 250.905 L 580.832 250.905 Q 580.832 252.171 580.651 253.121 L 580.651 253.121 L 561.477 253.121 L 561.477 253.121 Q 561.613 256.965 563.603 258.819 L 563.603 258.819 L 563.603 258.819 Q 565.593 260.673 568.532 260.673 L 568.532 260.673 L 568.532 260.673 Q 571.109 260.673 572.896 259.361 L 572.896 259.361 L 572.896 259.361 Q 574.682 258.05 575.089 255.879 L 575.089 255.879 L 580.606 255.879 L 580.606 255.879 Q 580.108 258.502 578.526 260.537 L 578.526 260.537 L 578.526 260.537 Q 576.943 262.572 574.411 263.725 L 574.411 263.725 L 574.411 263.725 Q 571.878 264.878 568.758 264.878 L 568.758 264.878 L 568.758 264.878 Q 565.14 264.878 562.359 263.341 L 562.359 263.341 L 562.359 263.341 Q 559.578 261.803 557.995 258.909 L 557.995 258.909 L 557.995 258.909 Q 556.413 256.015 556.413 252.081 L 556.413 252.081 L 556.413 252.081 Q 556.413 248.192 557.995 245.298 L 557.995 245.298 L 557.995 245.298 Q 559.578 242.403 562.359 240.866 L 562.359 240.866 L 562.359 240.866 Q 565.14 239.328 568.758 239.328 L 568.758 239.328 L 568.758 239.328 Q 572.421 239.328 575.157 240.843 L 575.157 240.843 L 575.157 240.843 Q 577.893 242.358 579.362 245.004 L 579.362 245.004 L 579.362 245.004 Q 580.832 247.649 580.832 250.905 L 580.832 250.905 Z  M 575.631 250.769 L 575.631 250.769 Q 575.722 248.327 574.795 246.677 L 574.795 246.677 L 574.795 246.677 Q 573.868 245.026 572.263 244.235 L 572.263 244.235 L 572.263 244.235 Q 570.657 243.444 568.758 243.444 L 568.758 243.444 L 568.758 243.444 Q 565.728 243.444 563.693 245.298 L 563.693 245.298 L 563.693 245.298 Q 561.658 247.152 561.477 250.769 L 561.477 250.769 L 575.631 250.769 Z " fill="rgb(74,85,104)"/><path d=" M 605.444 240.695 L 605.444 240.695 Q 607.28 240.28 608.998 237.971 L 608.998 237.971 L 608.998 237.971 Q 610.715 235.661 610.715 232.197 L 610.715 232.197 L 610.715 232.197 Q 610.715 228.733 608.257 227.134 L 608.257 227.134 L 608.257 227.134 Q 605.8 225.535 600.707 225.535 L 600.707 225.535 L 600.707 225.535 Q 593.127 225.535 588.301 228.437 L 588.301 228.437 L 588.301 228.437 Q 583.475 231.338 583.475 234.655 L 583.475 234.655 L 583.475 234.655 Q 583.475 236.372 584.778 237.408 L 584.778 237.408 L 584.778 237.408 Q 586.08 238.444 587.383 238.8 L 587.383 238.8 L 587.383 238.8 Q 587.205 241.109 585.784 243.182 L 585.784 243.182 L 585.784 243.182 Q 583.475 242.767 581.521 240.724 L 581.521 240.724 L 581.521 240.724 Q 579.566 238.681 579.566 235.424 L 579.566 235.424 L 579.566 235.424 Q 579.566 229.621 586.021 225.802 L 586.021 225.802 L 586.021 225.802 Q 592.476 221.982 602.721 221.982 L 602.721 221.982 L 602.721 221.982 Q 610.596 221.982 615.215 224.469 L 615.215 224.469 L 615.215 224.469 Q 619.834 226.956 619.834 232.108 L 619.834 232.108 L 619.834 232.108 Q 619.834 236.135 617.051 238.8 L 617.051 238.8 L 617.051 238.8 Q 614.268 241.465 609.945 242.827 L 609.945 242.827 L 609.945 242.827 Q 614.268 243.478 616.814 246.084 L 616.814 246.084 L 616.814 246.084 Q 621.552 244.84 625.578 244.84 L 625.578 244.84 L 628.48 245.018 L 628.48 245.018 Q 628.599 245.432 628.599 245.847 L 628.599 245.847 L 628.599 245.847 Q 628.599 247.919 628.006 249.104 L 628.006 249.104 L 628.006 249.104 Q 626.408 248.748 623.713 248.748 L 623.713 248.748 L 623.713 248.748 Q 621.019 248.748 618.887 249.4 L 618.887 249.4 L 618.887 249.4 Q 619.657 251.591 619.657 254.078 L 619.657 254.078 L 619.657 254.078 Q 619.657 260.118 616.044 264.027 L 616.044 264.027 L 616.044 264.027 Q 612.432 267.935 607.754 267.935 L 607.754 267.935 L 607.754 267.935 Q 604.556 267.935 602.424 266.01 L 602.424 266.01 L 602.424 266.01 Q 600.293 264.086 600.293 260.444 L 600.293 260.444 L 600.293 260.444 Q 600.293 256.802 602.987 253.515 L 602.987 253.515 L 602.987 253.515 Q 605.681 250.229 609.59 248.334 L 609.59 248.334 L 609.59 248.334 Q 608.05 244.366 604.083 244.366 L 604.083 244.366 L 603.668 244.366 L 603.668 244.366 Q 603.313 242.827 603.846 240.872 L 603.846 240.872 L 603.846 240.872 Q 604.734 240.872 605.444 240.695 L 605.444 240.695 Z  M 593.956 234.24 L 593.956 234.24 L 593.956 234.24 Q 593.956 233.115 593.69 232.582 L 593.69 232.582 L 593.69 232.582 Q 593.423 232.049 592.535 231.042 L 592.535 231.042 L 592.594 230.628 L 592.594 230.628 Q 595.733 228.792 600.411 228.792 L 600.411 228.792 L 600.411 228.792 Q 602.247 228.792 603.135 229.088 L 603.135 229.088 L 603.135 229.088 Q 603.431 229.68 603.431 231.605 L 603.431 231.605 L 603.431 231.605 Q 603.431 233.529 600.381 245.876 L 600.381 245.876 L 600.381 245.876 Q 597.332 258.223 596.799 264.263 L 596.799 264.263 L 596.799 264.263 Q 593.305 265.27 589.041 265.27 L 589.041 265.27 L 589.041 265.27 Q 588.035 265.27 587.561 265.092 L 587.561 265.092 L 587.561 265.092 Q 587.857 261.362 590.907 249.577 L 590.907 249.577 L 590.907 249.577 Q 593.956 237.793 593.956 234.24 Z  M 606.333 262.901 L 606.333 262.901 L 606.333 262.901 Q 607.932 262.901 609.175 259.97 L 609.175 259.97 L 609.175 259.97 Q 610.419 257.039 610.419 253.367 L 610.419 253.367 L 610.36 252.361 L 610.36 252.361 Q 608.169 253.19 606.185 255.381 L 606.185 255.381 L 606.185 255.381 Q 604.201 257.572 604.201 260.059 L 604.201 260.059 L 604.201 260.059 Q 604.201 261.539 604.882 262.22 L 604.882 262.22 L 604.882 262.22 Q 605.563 262.901 606.333 262.901 Z  M 629.22 265.625 L 629.22 265.625 L 629.22 265.625 Q 627.177 265.625 625.845 264.263 L 625.845 264.263 L 625.845 264.263 Q 624.513 262.901 624.513 260.444 L 624.513 260.444 L 624.513 260.444 Q 624.513 257.986 627.444 244.751 L 627.444 244.751 L 627.444 244.751 Q 630.375 231.516 630.375 225.653 L 630.375 225.653 L 630.02 223.048 L 630.02 223.048 Q 634.639 221.449 638.666 221.449 L 638.666 221.449 L 638.666 221.449 Q 639.258 222.278 639.258 224.351 L 639.258 224.351 L 639.258 224.351 Q 639.258 229.088 636.267 242.679 L 636.267 242.679 L 636.267 242.679 Q 633.277 256.269 633.277 258.49 L 633.277 258.49 L 633.277 258.49 Q 633.277 260.71 633.81 260.71 L 633.81 260.71 L 637.955 259.23 L 639.021 261.303 L 639.021 261.303 Q 637.007 262.901 634.135 264.263 L 634.135 264.263 L 634.135 264.263 Q 631.263 265.625 629.22 265.625 Z  M 648.673 265.625 L 648.673 265.625 L 648.673 265.625 Q 644.587 265.625 642.278 262.753 L 642.278 262.753 L 642.278 262.753 Q 639.968 259.881 639.968 254.729 L 639.968 254.729 L 639.968 254.729 Q 639.968 248.156 643.492 243.419 L 643.492 243.419 L 643.492 243.419 Q 647.015 238.681 653.233 238.681 L 653.233 238.681 L 655.365 238.8 L 655.365 238.8 Q 656.372 238.267 657.615 238.267 L 657.615 238.267 L 657.615 238.267 Q 662.293 238.267 662.293 247.09 L 662.293 247.09 L 662.293 247.09 Q 664.721 246.972 667.208 246.439 L 667.208 246.439 L 668.156 246.202 L 668.511 248.511 L 668.511 248.511 Q 666.557 249.341 663.241 249.992 L 663.241 249.992 L 662.057 250.229 L 662.057 250.229 Q 660.931 256.447 657.497 261.036 L 657.497 261.036 L 657.497 261.036 Q 654.062 265.625 648.673 265.625 Z  M 651.871 260.533 L 651.871 260.533 L 651.871 260.533 Q 654.358 260.533 656.342 257.335 L 656.342 257.335 L 656.342 257.335 Q 658.326 254.137 659.096 250.584 L 659.096 250.584 L 659.096 250.584 Q 652.759 250.584 652.759 245.847 L 652.759 245.847 L 652.759 245.847 Q 652.759 243.952 653.529 242.294 L 653.529 242.294 L 653.825 241.701 L 653.825 241.701 Q 653.588 241.583 653.233 241.583 L 653.233 241.583 L 653.233 241.583 Q 652.878 241.583 652.7 241.701 L 652.7 241.701 L 652.7 241.701 Q 651.22 242.649 649.917 246.143 L 649.917 246.143 L 649.917 246.143 Q 648.614 249.637 648.614 254.137 L 648.614 254.137 L 648.614 254.137 Q 648.614 260.533 651.871 260.533 Z  M 679.822 275.337 L 679.822 275.337 L 679.822 275.337 Q 677.631 276.818 675.617 277.499 L 675.617 277.499 L 675.617 277.499 Q 673.604 278.18 671.709 278.18 L 671.709 278.18 L 671.709 278.18 Q 669.814 278.18 668.63 277.114 L 668.63 277.114 L 668.63 277.114 Q 667.445 276.048 667.445 274.064 L 667.445 274.064 L 667.445 274.064 Q 667.445 272.08 669.992 270.304 L 669.992 270.304 L 669.992 270.304 Q 672.538 268.527 675.025 267.876 L 675.025 267.876 L 677.572 267.283 L 678.46 262.546 L 678.46 262.546 Q 675.025 265.152 671.857 265.152 L 671.857 265.152 L 671.857 265.152 Q 668.689 265.152 666.705 262.724 L 666.705 262.724 L 666.705 262.724 Q 664.721 260.296 664.721 254.966 L 664.721 254.966 L 664.721 254.966 Q 664.721 247.979 667.86 243.33 L 667.86 243.33 L 667.86 243.33 Q 670.998 238.681 676.15 238.681 L 676.15 238.681 L 676.15 238.681 Q 679.052 238.681 681.894 240.103 L 681.894 240.103 L 681.894 240.103 Q 684.915 239.037 688.408 239.037 L 688.408 239.037 L 689.652 239.096 L 689.652 239.096 Q 689.83 239.807 689.83 241.109 L 689.83 241.109 L 689.83 241.109 Q 689.83 246.32 686.099 264.5 L 686.099 264.5 L 686.099 264.5 Q 685.447 268.231 683.73 271.044 L 683.73 271.044 L 683.73 271.044 Q 682.013 273.857 679.822 275.337 Z  M 678.815 242.175 L 678.815 242.175 L 678.815 242.175 Q 676.269 242.175 674.788 246.291 L 674.788 246.291 L 674.788 246.291 Q 673.308 250.406 673.308 255.41 L 673.308 255.41 L 673.308 255.41 Q 673.308 260.414 675.558 260.414 L 675.558 260.414 L 675.558 260.414 Q 677.039 260.414 679.052 259.289 L 679.052 259.289 L 679.052 259.289 Q 680.71 249.341 681.421 242.886 L 681.421 242.886 L 681.421 242.886 Q 679.763 242.175 678.815 242.175 Z  M 670.11 273.916 L 670.11 273.916 L 670.11 273.916 Q 670.11 275.041 671.443 275.041 L 671.443 275.041 L 671.443 275.041 Q 672.775 275.041 674.374 273.531 L 674.374 273.531 L 674.374 273.531 Q 675.973 272.021 676.92 269.83 L 676.92 269.83 L 676.92 269.83 Q 674.966 270.067 672.538 271.281 L 672.538 271.281 L 672.538 271.281 Q 670.11 272.495 670.11 273.916 Z " fill="rgb(154,230,180)"/><path d=" M 469.105 274.817 C 462.8 270.706 455.781 262.48 451.25 250.665 C 460.573 264.29 466.136 271.378 481.695 277.822 C 474.688 273.672 466.505 266.197 465.688 253.866 C 464.978 243.095 465.836 234.709 465.996 228.118 C 464.508 230.616 462.067 232.693 458.054 233.539 C 458.054 233.539 459.987 232.743 462.103 230.169 C 465.046 226.589 465.868 221.716 464.268 217.369 C 462.664 213.019 458.878 209.84 454.313 209.029 C 454.31 209.03 454.303 209.028 454.296 209.027 C 438.662 206.264 422.597 231.865 437.395 260.083 C 446.611 276.978 463.807 281.938 476.435 282.994 C 489.722 289.179 505.067 288.9 518.789 279.216 C 514.598 280.891 493.371 290.636 469.105 274.817 Z " fill="rgb(154,230,180)"/></g></svg>